<svg height="496pt" viewBox="0 0 496 496" width="496pt" xmlns="http://www.w3.org/2000/svg"><path d="m248 160c-4.40625 0-8-3.59375-8-8h-16c0 10.414062 6.710938 19.214844 16 22.527344v17.472656h16v-17.472656c9.289062-3.3125 16-12.113282 16-22.527344 0-13.230469-10.769531-24-24-24-4.40625 0-8-3.59375-8-8s3.59375-8 8-8 8 3.59375 8 8h16c0-10.414062-6.710938-19.214844-16-22.527344v-17.472656h-16v17.472656c-9.289062 3.3125-16 12.113282-16 22.527344 0 13.230469 10.769531 24 24 24 4.40625 0 8 3.59375 8 8s-3.59375 8-8 8zm0 0"/><path d="m480 480h16v16h-16zm0 0"/><path d="m0 480h16v16h-16zm0 0"/><path d="m367.839844 296h80.160156c26.472656 0 48-21.527344 48-48 0-24.527344-18.496094-44.824219-42.273438-47.664062-6.839843-23.71875-28.488281-40.335938-53.726562-40.335938-9.382812 0-18.335938 2.441406-26.273438 6.671875-10.695312-9.6875-24.949218-14.929687-39.261718-14.601563.96875-5.214843 1.535156-10.574218 1.535156-16.070312 0-48.519531-39.480469-88-88-88-28.640625 0-54.054688 13.816406-70.136719 35.0625-5.742187-1.941406-11.71875-3.0625-17.863281-3.0625-9.375 0-18.328125 2.433594-26.265625 6.664062-10.261719-9.367187-23.671875-14.664062-37.734375-14.664062-28.375 0-51.839844 21.230469-55.457031 48.640625-22.933594 3.597656-40.542969 23.429687-40.542969 47.359375 0 26.472656 21.527344 48 48 48h113.839844l-111.152344 264h-18.6875v16h432v-16h-18.6875zm-7.390625-119.519531c-5.753907 5.742187-10.351563 12.71875-13.203125 20.6875l15.074218 5.382812c5.671876-15.886719 20.816407-26.550781 37.679688-26.550781 19.609375 0 36.175781 14.039062 39.398438 33.382812l1.136718 6.800782 6.890625-.113282 1-.070312c17.445313.230469 31.574219 14.496094 31.574219 32 0 17.648438-14.351562 32-32 32h-86.894531l-40.027344-95.046875c3.441406-5.121094 6.296875-10.632813 8.617187-16.433594 10.792969-1.703125 22.058594 1.296875 30.753907 7.960938zm-173.992188 22.3125c15.878907 15.566406 37.597657 25.207031 61.542969 25.207031s45.664062-9.640625 61.542969-25.207031l28.855469 68.535156c-3.925782 2.121094-6.855469 4.886719-9.285157 7.222656-3.960937 3.800781-6.351562 6.097657-11.816406 6.097657-5.457031 0-7.847656-2.296876-11.808594-6.097657-4.640625-4.453125-10.992187-10.550781-22.878906-10.550781-11.890625 0-18.242187 6.097656-22.875 10.542969-3.957031 3.800781-6.34375 6.097656-11.796875 6.097656-5.441406 0-7.824219-2.296875-11.777344-6.089844-4.648437-4.453125-10.992187-10.550781-22.871094-10.550781-11.882812 0-18.226562 6.097656-22.863281 10.550781-3.953125 3.800781-6.335937 6.089844-11.777343 6.089844-5.441407 0-7.832032-2.296875-11.785157-6.089844-2.429687-2.335937-5.351562-5.09375-9.269531-7.214843zm61.542969-134.792969c39.695312 0 72 32.304688 72 72s-32.304688 72-72 72-72-32.304688-72-72 32.304688-72 72-72zm-200 136c-17.648438 0-32-14.351562-32-32s14.351562-32 32-32 32 14.351562 32 32h16c0-23.488281-16.960938-43.046875-39.273438-47.167969 3.394532-18.632812 19.671876-32.832031 39.273438-32.832031 8.960938 0 17.542969 3.015625 24.503906 8.414062-5.785156 5.753907-10.398437 12.753907-13.257812 20.746094l15.074218 5.382813c5.671876-15.878907 20.816407-26.542969 37.679688-26.542969 3.121094 0 6.160156.480469 9.144531 1.183594-5.800781 11.726562-9.144531 24.871094-9.144531 38.816406 0 18.105469 5.503906 34.945312 14.921875 48.953125l-6.335937 15.046875zm103.3125 82.257812c1.441406 1 2.824219 2.246094 4.472656 3.832032 4.640625 4.453125 10.984375 10.550781 22.863282 10.550781 11.878906 0 18.222656-6.097656 22.863281-10.550781 3.953125-3.792969 6.335937-6.089844 11.777343-6.089844 5.4375 0 7.824219 2.296875 11.773438 6.089844 4.640625 4.453125 10.984375 10.550781 22.867188 10.550781 11.886718 0 18.238281-6.097656 22.878906-10.550781 3.960937-3.792969 6.351562-6.089844 11.800781-6.089844 5.453125 0 7.847656 2.296875 11.804687 6.097656 4.640626 4.445313 11 10.542969 22.890626 10.542969 11.894531 0 18.246093-6.097656 22.886718-10.542969 1.65625-1.59375 3.046875-2.839844 4.496094-3.851562l83.265625 197.753906h-359.90625zm0 0"/><path d="m240 0h16v32h-16zm0 0"/><path d="m146.171875 45.492188 11.3125-11.316407 22.628906 22.628907-11.316406 11.3125zm0 0"/><path d="m352 128h32v16h-32zm0 0"/><path d="m112 128h32v16h-32zm0 0"/><path d="m315.878906 56.800781 22.628906-22.625 11.3125 11.3125-22.625 22.625zm0 0"/></svg>