<svg id="Capa_1" enable-background="new 0 0 512 512" height="512" viewBox="0 0 512 512" width="512" xmlns="http://www.w3.org/2000/svg"><g fill="#060606"><path d="m467.318 109.682c-24.638 0-44.682 20.044-44.682 44.682v151.42c0 21.909 15.856 40.173 36.692 43.952v125.544l-44.269-67.954h23.761c2.849 0 5.45-1.613 6.718-4.164 1.267-2.551.979-5.6-.742-7.869l-181.296-239.007v-29.48c0-9.675-15-9.674-15 0v29.48l-92.137 121.466v-67.827c0-24.638-20.044-44.682-44.682-44.682-8.126 0-15.746 2.191-22.318 5.998v-126.56c0-24.637-20.044-44.681-44.682-44.681-24.637 0-44.681 20.044-44.681 44.681v23.319c0 9.674 15 9.674 15 0v-23.319c0-16.366 13.315-29.681 29.682-29.681 16.366 0 29.681 13.315 29.681 29.681v140.713c-4.648 7.047-7.363 15.476-7.363 24.531v38.728c-3.848 4.389-8.828 7.503-14.329 9.038v-148.218c0-9.674-15-9.674-15 0v148.467c-12.993-3.159-22.671-14.887-22.671-28.838v-117.102c0-9.674-15-9.674-15 0v117.102c0 22.253 16.353 40.753 37.671 44.127v223.771h-30.171c-9.674 0-9.674 15 0 15h497c9.674 0 9.674-15 0-15h-30.171v-147.089c21.318-3.375 37.671-21.875 37.671-44.127v-30.784c0-9.674-15-9.674-15 0v30.784c0 13.951-9.678 25.678-22.671 28.837v-115.467c0-9.674-15-9.674-15 0v115.209c-12.497-3.498-21.692-14.982-21.692-28.58v-151.42c0-16.367 13.315-29.682 29.682-29.682s29.681 13.316 29.681 29.682v74.637c0 9.674 15 9.674 15 0v-74.637c0-24.637-20.044-44.681-44.682-44.681zm-115.132 282.643-90.21-118.926c-1.418-1.869-3.629-2.967-5.976-2.967-2.346 0-4.558 1.098-5.976 2.967l-90.21 118.926h-71.533l167.719-221.105 167.719 221.105zm-240.504-212.082c16.366 0 29.681 13.315 29.681 29.682v86.075c0 .464.048.916.129 1.357l-21.82 28.766v-73.407c0-9.674-15-9.674-15 0v93.182l-16.802 22.15c-3.773-5.081-5.87-11.286-5.87-17.703v-140.42c0-16.367 13.315-29.682 29.682-29.682zm-44.682 87.558v82.544c0 11.112 4.166 21.805 11.557 29.979l-11.354 14.968c-1.721 2.269-2.008 5.317-.742 7.869 1.267 2.551 3.869 4.164 6.717 4.164h23.299l-43.806 67.76v-202.031c5.066-.917 9.905-2.7 14.329-5.253zm99.453 229.199 22.06-46.189c4.169-8.73-9.366-15.195-13.535-6.465l-25.148 52.654h-93.465l57.974-89.675h49.199c2.346 0 4.558-1.098 5.976-2.967l66.315-87.424-42.226 88.413c-4.169 8.73 9.368 15.197 13.535 6.465l48.862-102.307 89.548 187.495zm195.718 0-86-180.066 66.314 87.424c1.418 1.869 3.629 2.967 5.976 2.967h48.698l58.418 89.675z"/><path d="m343.038 173.808c23.329 0 42.31-18.98 42.31-42.311 0-23.33-18.98-42.31-42.31-42.31s-42.311 18.98-42.311 42.31c.001 23.33 18.981 42.311 42.311 42.311zm0-69.621c15.059 0 27.31 12.251 27.31 27.31s-12.251 27.311-27.31 27.311c-15.06 0-27.311-12.251-27.311-27.311.001-15.059 12.252-27.31 27.311-27.31z"/><path d="m146.5 110h69c17.369 0 31.5-14.131 31.5-31.5s-14.131-31.5-31.5-31.5c-2.157 0-4.3.222-6.397.658-4.391-12.132-15.951-20.658-29.603-20.658-13.426 0-24.9 8.252-29.431 20.2-1.179-.133-2.37-.2-3.569-.2-17.369 0-31.5 14.131-31.5 31.5s14.131 31.5 31.5 31.5zm0-48c2.162 0 4.267.414 6.257 1.231 4.574 1.877 9.875-1.413 10.317-6.257.779-8.536 7.841-14.974 16.426-14.974 8.961 0 16.202 7.013 16.484 15.967.173 5.506 6.46 9.036 11.259 6.251 2.502-1.451 5.357-2.218 8.257-2.218 9.098 0 16.5 7.402 16.5 16.5s-7.402 16.5-16.5 16.5h-69c-9.098 0-16.5-7.402-16.5-16.5s7.402-16.5 16.5-16.5z"/><path d="m411.5 83h69c17.369 0 31.5-14.131 31.5-31.5s-14.131-31.5-31.5-31.5c-2.156 0-4.3.222-6.397.658-4.39-12.132-15.952-20.658-29.603-20.658-13.426 0-24.901 8.252-29.432 20.2-1.179-.133-2.369-.2-3.568-.2-17.369 0-31.5 14.131-31.5 31.5s14.131 31.5 31.5 31.5zm0-48c2.162 0 4.268.414 6.258 1.231 4.574 1.875 9.875-1.411 10.316-6.257.779-8.536 7.84-14.974 16.426-14.974 8.961 0 16.201 7.013 16.484 15.967.173 5.509 6.459 9.032 11.259 6.251 2.502-1.451 5.357-2.218 8.257-2.218 9.098 0 16.5 7.402 16.5 16.5s-7.402 16.5-16.5 16.5h-69c-9.098 0-16.5-7.402-16.5-16.5s7.402-16.5 16.5-16.5z"/></g></svg>